PathFileType	4	(X/Y/Z)	Kaydara	
DataRate	CameraRate	NumFrames	NumMarkers	Units	OrigDataRate	OrigDataStartFrame	OrigNumFrames	
240.00	240.00	4	72	mm	240.00	1	359	
Frame#	Time	Hips			RightUpLeg			RightLeg			RightFoot			RightFoot_End			LeftUpLeg			LeftLeg			LeftFoot			LeftFoot_End			Spine			Spine1			Spine2			Spine3			Neck			Head			Head_End			RightShoulder			RightArm			RightForeArm			RightHand			RightHandThumb1			RightHandThumb2			RightHandThumb3			RightHandThumb3_End			RightInHandIndex			RightHandIndex1			RightHandIndex2			RightHandIndex3			RightHandIndex3_End			RightInHandMiddle			RightHandMiddle1			RightHandMiddle2			RightHandMiddle3			RightHandMiddle3_End			RightInHandRing			RightHandRing1			RightHandRing2			RightHandRing3			RightHandRing3_End			RightInHandPinky			RightHandPinky1			RightHandPinky2			RightHandPinky3			RightHandPinky3_End			LeftShoulder			LeftArm			LeftForeArm			LeftHand			LeftHandThumb1			LeftHandThumb2			LeftHandThumb3			LeftHandThumb3_End			LeftInHandIndex			LeftHandIndex1			LeftHandIndex2			LeftHandIndex3			LeftHandIndex3_End			LeftInHandMiddle			LeftHandMiddle1			LeftHandMiddle2			LeftHandMiddle3			LeftHandMiddle3_End			LeftInHandRing			LeftHandRing1			LeftHandRing2			LeftHandRing3			LeftHandRing3_End			LeftInHandPinky			LeftHandPinky1			LeftHandPinky2			LeftHandPinky3			LeftHandPinky3_End			
		X1	Y1	Z1	X2	Y2	Z2	X3	Y3	Z3	X4	Y4	Z4	X5	Y5	Z5	X6	Y6	Z6	X7	Y7	Z7	X8	Y8	Z8	X9	Y9	Z9	X10	Y10	Z10	X11	Y11	Z11	X12	Y12	Z12	X13	Y13	Z13	X14	Y14	Z14	X15	Y15	Z15	X16	Y16	Z16	X17	Y17	Z17	X18	Y18	Z18	X19	Y19	Z19	X20	Y20	Z20	X21	Y21	Z21	X22	Y22	Z22	X23	Y23	Z23	X24	Y24	Z24	X25	Y25	Z25	X26	Y26	Z26	X27	Y27	Z27	X28	Y28	Z28	X29	Y29	Z29	X30	Y30	Z30	X31	Y31	Z31	X32	Y32	Z32	X33	Y33	Z33	X34	Y34	Z34	X35	Y35	Z35	X36	Y36	Z36	X37	Y37	Z37	X38	Y38	Z38	X39	Y39	Z39	X40	Y40	Z40	X41	Y41	Z41	X42	Y42	Z42	X43	Y43	Z43	X44	Y44	Z44	X45	Y45	Z45	X46	Y46	Z46	X47	Y47	Z47	X48	Y48	Z48	X49	Y49	Z49	X50	Y50	Z50	X51	Y51	Z51	X52	Y52	Z52	X53	Y53	Z53	X54	Y54	Z54	X55	Y55	Z55	X56	Y56	Z56	X57	Y57	Z57	X58	Y58	Z58	X59	Y59	Z59	X60	Y60	Z60	X61	Y61	Z61	X62	Y62	Z62	X63	Y63	Z63	X64	Y64	Z64	X65	Y65	Z65	X66	Y66	Z66	X67	Y67	Z67	X68	Y68	Z68	X69	Y69	Z69	X70	Y70	Z70	X71	Y71	Z71	X72	Y72	Z72	

1	0.0	2198.941	914.58397	126.699	2254.360178044337	897.1954834832281	53.244070256971995	2159.7934389439056	500.3617586151405	-42.08314610765086	2143.1432779503684	108.91916962249928	-118.01177573940656	1991.3292454263747	31.889998985435252	-31.077283588686257	2158.1334721798576	905.9770884555279	211.54916219549415	2067.6308495355133	503.99281337152786	286.6024198719399	1996.3594186979394	79.35994953745863	377.34428642004457	1874.7329578985389	-3.1391654107007625	255.1162859781362	2130.931921509719	1031.2753082930951	79.14634210712995	2068.310994609193	1087.6582448301453	30.6565711113503	1999.8883794861717	1139.0161884081417	-23.472390751940726	1930.1572024112606	1175.7770110499955	-80.26594231563327	1854.6279638386316	1215.6090652635428	-139.29232413895576	1784.2985706694067	1252.3315706956962	-190.44254962271557	1645.6346479008193	1330.972773216058	-196.9417005259636	1900.0031396922923	1203.5913424312498	-144.34443263215087	1957.7161875291465	1193.5715137134425	-263.22560147430886	2041.137773393474	931.9788095814756	-295.3854808134125	2045.3672533434042	782.8548985172845	-478.0829819044047	2051.1967264716595	789.2818359045989	-507.3835128250381	2033.607488687074	788.0555628766048	-533.027551214443	2021.1212256749227	784.2316873557994	-549.9535879687872	2010.5091153197072	778.5032209370395	-563.2663916425184	2053.3036136795554	779.0604356797512	-507.3043925196716	2054.0624387580574	762.9593967002355	-546.0132520893312	2041.6529081908316	752.6348310359341	-569.8780178982331	2026.9707080683195	750.367811814126	-580.783990035268	2010.1186644257937	751.2918850017027	-587.1594479847819	2052.0173260273236	771.5850418681023	-503.27487167049804	2052.0653978280225	751.8368764625466	-538.8516344890228	2038.3357879884509	739.6376827638966	-564.2317651422834	2020.5318531694238	736.454882931515	-577.0721718057335	2002.0487155286257	737.2483359091718	-583.8938488699561	2051.2191726377637	766.6829942153698	-499.4730334191704	2050.949649854252	744.637033900763	-528.1526344052957	2038.7888498378993	733.081982178422	-549.5419266969615	2021.512493293272	729.5221975328666	-561.5387044752401	2004.0848398717158	730.0361818680157	-567.768551520841	2049.253420872134	761.748161634568	-493.7113244272559	2048.2306951533506	738.3743478769052	-516.5865967253832	2038.1902977188774	727.7791528074345	-532.4468396705493	2025.4425304122858	724.533293971092	-540.58420616932	2009.9202572625659	724.614901034148	-545.7499657998475	1859.3412717721433	1201.340433431184	-93.83210657455182	1811.187883665095	1135.3755793665805	10.081100749053407	1958.7361544485261	973.7083505096001	-157.79656843630244	2053.3082571090886	849.7196263173133	-369.5031557400187	2080.3393382356717	860.2125362566837	-391.0453954256278	2117.4586869775853	852.928088139583	-400.52005315238205	2142.459059553181	844.5291703895294	-407.31004135209446	2162.574023816984	834.6820262646025	-413.1346763607811	2078.928585885814	850.0717759811597	-395.40915770829355	2118.5950437660717	834.7240251828547	-428.3513595199884	2150.7149366086023	819.6663662714847	-442.19739056210943	2170.7767253423385	811.8026792468389	-443.10978478394424	2187.4444917327473	806.3041318119318	-438.6740050074129	2075.4519906349765	841.3516498238808	-394.352839005715	2112.2596849301617	821.6664451527258	-425.9148969641926	2146.727124720473	804.1292596232978	-440.766096745937	2170.6517638188557	794.1111446165318	-441.74324658076785	2188.7536129490304	787.8366615663663	-436.8295945793865	2071.9400424419932	835.6021818350391	-392.86590678073173	2101.7511347464324	813.0268427119522	-420.153597185048	2131.140947865402	796.6414323138524	-432.78385062049364	2153.8718398589676	786.3940444276038	-433.55955859433925	2170.728024328571	780.2176471269381	-428.8604233034	2067.085943014811	829.2654601825157	-389.4100672023784	2091.3027632555245	804.7139047940352	-412.653822458488	2113.6899470971803	789.9753619746992	-422.1578748771287	2129.7150673537135	781.7183362486235	-422.428701626217	2144.32756165672	775.7966912998846	-418.096271346444
2	0.004	2198.941	914.58397	126.699	2254.3924028364245	897.2242649767686	53.25279925733596	2159.8029264852125	500.3870268067327	-42.039699963314874	2143.0880098109405	108.94197503015212	-117.95219702490299	1991.2732102604116	31.922355887531452	-31.010587208089845	2158.1011254808027	905.9468230630771	211.5375529421891	2067.5608612808055	503.9701360733881	286.58625945465917	1996.2979760850405	79.34102231511471	377.36168887399054	1874.6708032746503	-3.1504684229190882	255.1291936310634	2130.9310166146106	1031.2805666738523	79.15867641327802	2068.393844611078	1087.7744036294273	30.68478110802059	2000.0398562019786	1139.2288050502973	-23.443131917927	1930.3263902817903	1176.0089239071833	-80.24582624247863	1854.8147719085598	1215.860869918449	-139.28125896120287	1784.4984083333811	1252.5977919527877	-190.43889966681257	1645.8051017155683	1331.200951802062	-196.87331096259538	1900.2094824614517	1203.8776619961257	-144.32797038241503	1958.0633481487641	1194.0089299703532	-263.2447070935793	2041.7597579755331	932.1675515005666	-296.02387254188517	2045.619553250149	783.247229995848	-480.17032622920345	2051.5408081614382	789.7594798221273	-509.6233720229526	2033.8963689704358	788.6062495361307	-535.4878070748712	2021.3604804736128	784.8285131418158	-552.5698154662218	2010.697427060808	779.1344737295235	-566.0147738008037	2053.6287502407954	779.530091680668	-509.56387802576387	2054.402274859034	763.5248524389156	-548.559246109514	2041.9349894491468	753.2609710372645	-572.6409143880135	2027.1875402108137	751.0248145628611	-583.6670880288428	2010.2616953036986	751.9697967096648	-590.1321639239849	2052.3082961839596	772.0382288107027	-505.53198078968865	2052.352248035036	752.3745968510455	-541.3869051665293	2038.5549804438376	740.2391304705657	-567.0024968962716	2020.670093395414	737.0923679787502	-579.9873386187036	2002.1051183574423	737.908119778068	-586.90678765179	2051.4862505645324	767.1221483379861	-501.72104744875554	2051.1941102533624	745.139910711638	-530.6417370430688	2038.9695932363895	733.6377239129249	-552.2345704115779	2021.612635615527	730.1112784594524	-564.3697741749763	2004.106841838965	730.645554169718	-570.6911255641871	2049.487650635665	762.1679820897428	-495.9413790224344	2048.4260155402144	738.8408905655914	-519.0264468015654	2038.3272885107467	728.2835694707599	-535.0460010905377	2025.517194521971	725.059869435296	-543.2825514539489	2009.9236697614406	725.1582136481901	-548.5283491651135	1859.495693967786	1201.5432944580966	-93.81981983972149	1811.2534963407074	1135.4052585506681	10.060731707490746	1958.9861549105278	973.9989446418726	-158.56655014420951	2053.936756791375	850.3613183741567	-370.86807334583983	2081.1624139607898	860.9017877498165	-392.4667150356307	2118.4693309490076	853.6325902196913	-401.91092258251285	2143.5873870047185	845.2435408110001	-408.68515900957476	2163.7893886545794	835.4039853617675	-414.50132591136145	2079.722744562217	850.7666085106132	-396.86709187827614	2119.5960051371235	835.4803442957458	-429.9201546312391	2151.8618174922744	820.4445849268881	-443.77981770120437	2172.0099171414286	812.5788877965689	-444.6527718239556	2188.746155535886	807.0681365046248	-440.1520293304065	2076.2038491639037	842.0413071962372	-395.81872195478735	2113.190369903335	822.4132814567336	-427.493234875552	2147.81078680753	804.8990853394326	-442.35991740517574	2171.836558616965	794.8781076679512	-443.28977697361904	2190.0118704535876	788.5900558395062	-438.30518573929265	2072.6566739466193	836.2868327129722	-394.3352807042624	2102.5972638701014	813.7590340446762	-421.7288410294555	2132.1137424604676	797.3926376056821	-434.37302491807657	2154.938646865194	787.1419474468094	-435.10335009728925	2171.8622248135644	780.9525367024636	-430.33762485746644	2067.756483983176	829.9408294043627	-390.87471599333304	2092.0635182951946	805.4279124089529	-414.2150530930957	2114.5411618557255	790.7027974904925	-423.73048052688836	2130.6295483557083	782.4424872509104	-423.9683110360566	2145.2986865305043	776.508814756375	-419.57695448566915
3	0.008	2198.941	914.58397	126.699	2254.419599014165	897.2526941883045	53.25822894802184	2159.7985863331637	500.41338803781565	-41.99684679534931	2143.0207950938	108.96533683548712	-117.89071365808407	1991.2077144242633	31.953959628889177	-30.938793101906803	2158.073688409733	905.9162698866472	211.52800277210198	2067.494853877912	503.9478175256856	286.5745453749227	1996.247097596899	79.32105151437115	377.38226748503706	1874.6179829835928	-3.1626793796079236	255.1463998273045	2130.9308659609383	1031.2887111014943	79.17669967260511	2068.43193761749	1087.836842071115	30.713356669449286	2000.1124443476194	1139.3407845105655	-23.413495454485414	1930.4160453813915	1176.1422151725233	-80.22340049742583	1854.921306244257	1216.016023690656	-139.26578001473789	1784.6169132617858	1252.7683254883095	-190.42882048282277	1645.8913402892142	1331.3280197378606	-196.80652313281163	1900.3327748710924	1204.0626545151786	-144.30822886323196	1958.3981623026182	1194.5104642079946	-263.3594003926007	2042.3947002987081	932.3923920545589	-296.82459158324326	2045.9618658804188	783.6810423536051	-482.29037228746625	2051.987794361887	790.2742023260021	-511.9292407218344	2034.2685173275283	789.1856228137374	-538.045309093727	2021.6653277368403	785.4481962428674	-555.3010795181403	2010.9331757421342	779.7837296325895	-568.8896334132928	2054.0457679665833	780.0367928343793	-511.87762403660025	2054.812772238372	764.1191799157028	-551.1803622617435	2042.2615716447176	753.9085210141197	-575.4966658460397	2027.4312582403054	751.6982364361315	-586.6574421781413	2010.4161202581038	752.6597632927575	-593.2263287176527	2052.6804662557947	772.52869275648	-507.832001443933	2052.6938244402327	752.9417468219176	-543.979297486183	2038.7989931435318	740.8619205463023	-569.8481387396397	2020.8112564108376	737.745203139362	-582.9940387572078	2002.1471787220007	738.5784887881209	-590.026426169826	2051.8276092196043	767.5989706455648	-504.00336745396265	2051.4833668426663	745.6738058765469	-533.1702529976509	2039.16772568478	734.2175049455115	-554.9805162360261	2021.7083267340843	730.7186524002336	-567.2693209679742	2004.1078194386432	731.2687565722025	-573.6960293835788	2049.7881273425332	762.6260240512383	-498.19564955852957	2048.6558661298855	739.3399537193586	-521.4887967016577	2038.47489525368	728.8150506810033	-537.6762366770731	2025.5855919509895	725.6093842976171	-546.0218108482708	2009.905586810164	725.7205493688838	-551.3592060572973	1859.5732444434443	1201.6529595407262	-93.80343596081062	1811.1723571824532	1135.260528596395	10.028111261092022	1959.0888395573547	974.1204854620247	-159.3920842269055	2054.4120095562644	850.8366577708227	-372.31909433536947	2081.8614948348854	861.4403336449651	-393.9953848660766	2119.379806834298	854.2008587097966	-403.40119704470675	2144.628912146289	845.8299818703068	-410.15213809161753	2164.926333785321	836.0034194403712	-415.9518261613901	2080.383962305357	851.3055850766606	-398.42978038625586	2120.483385753367	836.0912747856089	-431.6032406907406	2152.908953092172	821.0859259265329	-445.46896255786936	2173.153290996556	813.2248168173812	-446.2908729438875	2189.9671073140807	807.7082035865386	-441.71090610712184	2076.8133358021837	842.5699801246191	-397.38288746092746	2113.992464755042	823.0065668252744	-429.1756562798971	2148.7796490297737	805.5239404037903	-444.0486581444086	2172.9179017889483	795.5077203006628	-444.9167928879352	2191.17633818763	789.2128742833149	-439.84544898100216	2073.223755350913	836.8065869674439	-395.89825343059806	2103.2999026773027	814.3295298276432	-423.39920576431194	2132.9537102935674	797.9888890867807	-436.04840076559077	2155.8828511487504	787.741856535298	-436.7189239357087	2172.882564909306	781.5456157344793	-431.8715040319686	2068.2688059085162	830.4466623323349	-392.4262434279601	2092.666203592447	805.9723914350024	-415.8608643556583	2115.2407032129922	791.264937986913	-425.3790596948352	2131.3987776693994	783.0058590023987	-425.5726682705834	2146.1317091993974	777.0653139683658	-421.10859686710506
4	0.013	2198.941	914.58397	126.699	2254.445799694235	897.2843589001106	53.26205289658975	2159.80462480771	500.441877276577	-41.96214435476239	2142.9686197889437	108.99045747157993	-117.83619313558253	1991.1595697455634	31.982962546529944	-30.87379472555017	2158.048715439898	905.8829611689035	211.51936756535753	2067.448827487738	503.9207448424963	286.57445345873396	1996.223049539391	79.29664240501923	377.4220488033679	1874.5912914179437	-3.181523532956621	255.184990203413	2130.924205833157	1031.294559472682	79.19788380907534	2068.4232734833777	1087.8432911142493	30.737027390145737	2000.1065868094274	1139.3495304978746	-23.39152747787062	1930.4226219185925	1176.1621624744369	-80.20914309435904	1854.9398906740373	1216.0472074114637	-139.2590305088355	1784.6427832861289	1252.8048620777738	-190.42798303599363	1645.887128290359	1331.3222154385696	-196.76804997358596	1900.3655937589613	1204.1188541002484	-144.29621048246864	1958.7150078903285	1195.0169296761553	-263.5566279313209	2042.978540744033	932.6519040337663	-297.6396339833545	2046.7308327929052	784.166515576337	-484.064387412075	2052.8462571687396	790.8404674663005	-513.8593131041745	2035.0685364753754	789.8185621440649	-540.1949496897206	2022.4131913124047	786.1228630554414	-557.6051677557086	2011.627761426416	780.4891541123798	-571.3237931193498	2054.8840637282983	780.5948298061284	-513.8244278047034	2055.659585060579	764.7653219313082	-553.4104049369898	2043.046549663149	754.6093922346807	-577.9404072555915	2028.149267316037	752.4265143773129	-589.2199159458125	2011.0594568723998	753.4062639334727	-595.8775474652092	2053.484088791716	773.0705496183231	-509.7739240577997	2053.487017627325	753.560788045867	-546.1948396959277	2039.5200213419753	741.5382530587206	-572.2953257347958	2021.4492422039712	738.4534371860944	-585.5837301655301	2002.7023668690601	739.3060941012241	-592.7128619442951	2052.6071318877725	768.1272037356496	-505.9345106937534	2052.2344210568176	746.2595380419262	-535.3369590181453	2039.8511011229837	734.8505691490651	-557.3471195315052	2022.3090592343544	731.3811032243146	-569.772317107864	2004.6294978413523	731.9487646274545	-576.2894833526223	2050.534783096485	763.1355765281463	-500.1069702253827	2049.3582145741148	739.8909394905849	-523.6037008770412	2039.1157092592339	729.3996203049179	-539.9470529845033	2026.1625761874518	726.2133022281989	-548.3901029956221	2010.4104986664538	726.3388194493053	-553.806470798827	1859.568780219894	1201.6508254907253	-93.79657770801823	1810.94379753849	1134.9213929069856	9.969520432937365	1959.0303365597324	974.0255150309611	-160.17928576752246	2054.7280731243777	851.0828988558646	-373.6939607946931	2082.364214594229	861.7389808182036	-395.4247581993585	2120.0614419536464	854.5179057245448	-404.8019729046475	2145.42275444269	846.1583375638148	-411.5388733492308	2165.803119500028	836.3399152001688	-417.331880657921	2080.859148811681	851.6075501174419	-399.89684280592525	2121.15687051318	836.4559181083168	-433.1826457688425	2153.7217501968466	821.473335009046	-447.06444272888024	2174.048126072569	813.6112973065187	-447.84876084918	2190.926758247153	808.0837409466238	-443.2055737852713	2077.2479853153677	842.8646794769381	-398.85906914786847	2114.598600785125	823.3584764187768	-430.7663613183152	2149.53181217125	805.8995063876846	-445.65766883349164	2173.766164423829	795.8815951998687	-446.4808118783274	2192.094126435403	789.5744977837335	-441.34047281298035	2073.624650042848	837.0947682979478	-397.3787019239015	2103.825021144945	814.6639514070722	-424.9880161066978	2133.599714936924	798.3426221209496	-437.6537568982688	2156.6181558905637	788.0932649411284	-438.2811948310767	2173.6816315762826	781.8851755756866	-433.3690491488997	2068.625483901384	830.723826884367	-393.90290991935206	2093.1094395656505	806.2859157879659	-417.43694410726084	2115.7702267017953	791.5916831945176	-426.9688308138485	2131.9883527671695	783.3298248652295	-427.1312264630066	2146.774839921534	777.3781610010024	-422.6099415998332
